<svg version="1.2" xmlns="http://www.w3.org/2000/svg" viewBox="0 0 1000 334" width="1000" height="334"><style>.a{fill:#a6a6a6}.b{fill:#3ddc84}.c{fill:#fff}</style><path class="a" d="m948.4 309.6h-897.2c-18.6 0-33.8-15.2-33.8-33.8v-218.4c0-18.6 15.2-33.8 33.8-33.8h897.2c18.6 0 34.3 15.2 34.3 33.8v218.4c0 18.5-15.8 33.8-34.3 33.8z"/><path  d="m975.8 275.7c0 15.1-12.3 27.4-27.4 27.4h-897.2c-15.2 0-27.5-12.3-27.5-27.4v-218.4c0-15.1 12.3-27.4 27.5-27.4h897.2c15.2 0 27.4 12.3 27.4 27.4v218.4z"/><path class="b" d="m252.5 115.3c-0.7-0.8-1.6-1.4-2.5-1.9-1-0.4-2-0.6-3.1-0.6-1.1 0-2.1 0.2-3.1 0.6-0.9 0.5-1.8 1.1-2.5 1.9l-21.8 21.6-1 1q-5-2.4-10.3-4.3-5.3-1.8-10.7-3.1-5.5-1.2-11-1.8-5.6-0.6-11.2-0.5h-0.5q-5.7-0.1-11.2 0.5-5.6 0.6-11.1 1.8-5.5 1.3-10.7 3.1-5.3 1.9-10.4 4.3l-1-1-21.7-21.6c-1.5-1.5-3.5-2.4-5.7-2.4-2.1 0-4.1 0.8-5.6 2.3-1.5 1.5-2.4 3.6-2.4 5.7 0 2.1 0.9 4.1 2.4 5.6l21 21.1q-2.5 1.7-5 3.6-2.4 1.9-4.7 3.9-2.3 2.1-4.4 4.3-2.2 2.2-4.1 4.5-5 5.9-8.9 12.6-3.9 6.6-6.7 13.7-2.8 7.2-4.5 14.7-1.6 7.5-2 15.2c-0.2 5.1 0 0.5 0 0.7 0 1.4 0 2.9 0 4.4h193.9c0-1.5 0-3 0-4.4q0-0.1 0-0.2 0-0.1 0-0.1 0-0.1 0-0.2 0-0.1 0-0.2-0.4-7.7-2-15.2-1.6-7.5-4.5-14.7-2.8-7.1-6.7-13.7-3.9-6.7-8.9-12.6-1.9-2.3-4.1-4.5-2.1-2.2-4.4-4.3-2.3-2-4.7-3.9-2.4-1.9-5-3.6l21-21.1c0.8-0.7 1.4-1.6 1.8-2.5 0.4-1 0.6-2.1 0.6-3.1 0-1.1-0.3-2.1-0.7-3.1-0.4-1-1.1-1.8-1.9-2.5zm-118 81.6c-5 0-9.4-2.9-11.3-7.5-1.9-4.5-0.8-9.8 2.7-13.2 3.4-3.5 8.7-4.6 13.2-2.7 4.6 1.9 7.5 6.3 7.5 11.3 0 1.6-0.3 3.1-0.9 4.6-0.6 1.5-1.5 2.8-2.6 4-1.2 1.1-2.5 2-4 2.6-1.5 0.6-3 0.9-4.6 0.9zm80.9 0c-3.4 0.3-6.7-0.9-9.2-3.2-2.5-2.3-3.9-5.5-3.9-8.9 0-3.4 1.4-6.6 3.9-8.9 2.5-2.3 5.8-3.5 9.2-3.2 3.1 0.2 5.9 1.6 8 3.8 2.1 2.3 3.2 5.2 3.2 8.3 0 3.1-1.1 6-3.2 8.3-2.1 2.2-4.9 3.6-8 3.8z"/><path class="c" d="m332 106.5v-44h13.5q2.2-0.1 4.4 0.2 2.2 0.4 4.3 1.2 2.1 0.8 4 1.9 1.9 1.2 3.5 2.8 1.6 1.6 2.7 3.4 1.2 1.8 2 3.9 0.8 2 1.2 4.2 0.4 2.2 0.3 4.4 0.1 2.2-0.3 4.4-0.3 2.2-1.1 4.2-0.8 2.1-2 4-1.2 1.8-2.7 3.4-1.6 1.5-3.5 2.7-1.9 1.2-4 2-2.1 0.7-4.3 1.1-2.2 0.3-4.5 0.2zm5.7-38.6v33.2h7.8c2.2 0.2 4.5-0.1 6.6-0.8 2.1-0.8 4-2 5.6-3.6 1.6-1.6 2.8-3.5 3.6-5.6 0.7-2.1 1-4.4 0.8-6.6 0.2-2.3-0.1-4.5-0.9-6.6-0.8-2.1-2-4-3.6-5.6-1.5-1.5-3.4-2.8-5.5-3.5-2.1-0.8-4.4-1.1-6.6-0.9z"/><path class="c" d="m380.8 66q0.1 0.4 0 0.8-0.1 0.3-0.2 0.7-0.2 0.4-0.4 0.7-0.2 0.3-0.5 0.6-0.3 0.3-0.6 0.5-0.3 0.2-0.7 0.4-0.4 0.2-0.7 0.2-0.4 0.1-0.8 0.1-0.8 0-1.6-0.3-0.7-0.3-1.3-0.9-0.5-0.6-0.8-1.3-0.4-0.7-0.4-1.5 0-0.4 0.1-0.8 0.1-0.4 0.2-0.8 0.2-0.3 0.4-0.7 0.3-0.3 0.5-0.6 0.3-0.2 0.6-0.5 0.4-0.2 0.7-0.3 0.4-0.2 0.8-0.2 0.4-0.1 0.8-0.1 0.8 0 1.5 0.3 0.7 0.3 1.3 0.8 0.6 0.6 0.9 1.3 0.3 0.8 0.2 1.6zm-1.1 10.4v30.1h-5.7v-30.1z"/><path class="c" d="m392.7 106.5h-5.6v-30.1h5.4v4.9q0.2-0.7 0.6-1.2 0.3-0.6 0.8-1.1 0.4-0.6 1-1 0.5-0.4 1.1-0.8 0.6-0.4 1.2-0.7 0.6-0.3 1.3-0.5 0.7-0.2 1.4-0.3 0.7-0.1 1.4-0.2 0.5 0 1 0.1 0.6 0 1.1 0.1 0.5 0.1 1 0.2 0.5 0.2 1 0.3l-1.7 5.5q-0.4-0.1-0.8-0.2-0.4-0.1-0.8-0.2-0.5 0-0.9 0-0.4 0-0.8 0-0.8 0-1.6 0.1-0.8 0.2-1.5 0.6-0.7 0.3-1.4 0.8-0.6 0.5-1.1 1.1-0.6 0.6-1 1.3-0.5 0.7-0.8 1.5-0.3 0.8-0.4 1.6-0.1 0.8-0.1 1.6z"/><path class="c" d="m421.1 107.5q-1.5 0-3-0.2-1.5-0.3-2.8-0.9-1.4-0.6-2.6-1.5-1.3-0.8-2.3-1.9c-1.4-1.6-2.4-3.4-3.2-5.4-0.7-1.9-1-4-1-6.1 0-2.1 0.3-4.2 1-6.1 0.8-2 1.8-3.8 3.2-5.4q1-1.1 2.2-2 1.3-0.9 2.7-1.4 1.3-0.6 2.8-0.9 1.5-0.3 3-0.3 1.5-0.1 3 0.2 1.4 0.2 2.8 0.8 1.4 0.5 2.6 1.4 1.3 0.8 2.3 1.9 1.1 1.3 1.8 2.7 0.8 1.5 1.3 3 0.6 1.6 0.8 3.2 0.2 1.7 0.1 3.3v0.6h-24.2q0 1 0.2 1.9 0.2 1 0.6 1.9 0.4 0.9 0.9 1.8 0.6 0.8 1.3 1.5c1.1 1 2.4 1.8 3.8 2.2 1.5 0.5 3 0.6 4.5 0.3 1.5-0.3 2.9-0.9 4.1-1.8 1.2-0.9 2.2-2.1 2.8-3.4l5.1 2.4q-1 1.9-2.5 3.4-1.4 1.6-3.2 2.7-1.9 1-3.9 1.6-2.1 0.5-4.2 0.4zm-9.1-19.7h17.3q0-0.7-0.2-1.4-0.2-0.8-0.5-1.4-0.3-0.7-0.8-1.3-0.5-0.6-1-1-0.7-0.6-1.4-1-0.7-0.4-1.5-0.6-0.8-0.3-1.6-0.4-0.9-0.1-1.7-0.1-0.7 0-1.5 0.1-0.7 0.1-1.4 0.4-0.8 0.2-1.4 0.6-0.7 0.4-1.2 0.9-0.6 0.5-1.1 1.1-0.5 0.6-0.9 1.3-0.4 0.6-0.7 1.3-0.2 0.8-0.4 1.5z"/><path class="c" d="m454.6 107.5q-1.5 0.1-3.1-0.2-1.5-0.3-2.9-0.9-1.5-0.6-2.7-1.4-1.3-0.9-2.4-2-1.1-1.2-1.9-2.5-0.9-1.4-1.5-2.9-0.5-1.5-0.8-3-0.2-1.6-0.2-3.2 0-1.6 0.2-3.1 0.3-1.6 0.8-3.1 0.6-1.4 1.5-2.8 0.8-1.3 1.9-2.5 1.1-1.1 2.4-2 1.2-0.8 2.7-1.4 1.4-0.6 2.9-0.9 1.6-0.3 3.1-0.2 1.1 0 2.1 0.1 1.1 0.2 2.1 0.5 1 0.3 2 0.7 1 0.5 1.8 1 0.9 0.6 1.7 1.3 0.8 0.7 1.4 1.5 0.7 0.8 1.2 1.7 0.5 0.9 0.9 1.8l-5.2 2.2q-0.4-1.3-1.2-2.3-0.9-1.1-2-1.9-1.2-0.8-2.5-1.1-1.3-0.4-2.7-0.3-0.9 0-1.9 0.2-0.9 0.2-1.8 0.6-0.8 0.4-1.6 1-0.7 0.6-1.4 1.3-1.3 1.6-2 3.6-0.7 2-0.7 4.2 0 2.1 0.7 4.1 0.7 2 2 3.6 0.7 0.7 1.4 1.3 0.8 0.6 1.6 1 0.9 0.4 1.8 0.6 1 0.2 1.9 0.2 1.4 0.1 2.8-0.3 1.3-0.3 2.5-1.1 1.2-0.7 2.1-1.8 0.9-1.1 1.4-2.4l5 2.2q-0.4 0.9-0.9 1.8-0.5 0.9-1.2 1.7-0.7 0.8-1.4 1.5-0.8 0.7-1.7 1.3-0.9 0.6-1.9 1-1 0.5-2 0.8-1.1 0.3-2.1 0.4-1.1 0.1-2.2 0.1z"/><path class="c" d="m484.5 107.2q-0.8 0-1.6-0.2-0.8-0.1-1.6-0.4-0.8-0.3-1.5-0.7-0.7-0.4-1.4-1-0.6-0.6-1.1-1.4-0.5-0.7-0.8-1.5-0.3-0.9-0.4-1.7-0.2-0.9-0.1-1.8v-16.9h-5.3v-5.2h5.3v-9.2h5.3v9.2h7.1v5.2h-7.1v14.9q-0.1 0.6 0 1.1 0 0.6 0.2 1.1 0.1 0.5 0.4 1 0.2 0.5 0.6 0.9 0.2 0.3 0.6 0.5 0.3 0.2 0.6 0.3 0.3 0.2 0.7 0.2 0.3 0.1 0.7 0.1 0.2 0 0.3 0 0.2 0.1 0.4 0.1 0.2 0 0.3-0.1 0.2 0 0.4 0l1.2-0.4 1.7 5.1q-0.6 0.2-1.2 0.3-0.6 0.2-1.2 0.3-0.6 0.1-1.2 0.1-0.6 0.1-1.3 0.1z"/><path class="c" d="m520.6 107.5q-1.5 0-2.9-0.3-1.4-0.3-2.8-0.9-1.3-0.6-2.4-1.5-1.2-0.9-2.2-2-1-1.1-1.8-2.5-0.8-1.3-1.3-2.8-0.5-1.4-0.8-3-0.3-1.5-0.2-3.1-0.1-1.5 0.2-3.1 0.2-1.5 0.8-2.9 0.5-1.5 1.3-2.8 0.8-1.4 1.8-2.5 1.5-1.7 3.5-2.9 1.9-1.1 4.1-1.5 2.2-0.5 4.4-0.2 2.3 0.3 4.3 1.3 0.6 0.3 1.2 0.7 0.6 0.4 1.2 0.9 0.5 0.5 1 1 0.4 0.6 0.8 1.2v-4.2-14.2h5.6v44h-5.5v-4.1q-0.4 0.6-0.9 1.1-0.4 0.5-1 1-0.5 0.5-1.1 0.9-0.6 0.4-1.2 0.7-0.7 0.4-1.5 0.7-0.7 0.3-1.5 0.5-0.8 0.2-1.6 0.4-0.7 0.1-1.5 0.1zm0.9-5.2q1 0.1 2-0.1 0.9-0.1 1.9-0.5 0.9-0.4 1.7-1 0.8-0.6 1.5-1.3 0.6-0.9 1.1-1.8 0.5-1 0.8-2 0.3-1 0.4-2.1 0.1-1 0-2.1 0-1-0.1-2.1-0.2-1-0.5-2-0.4-1-0.9-2-0.6-0.9-1.3-1.7-0.6-0.7-1.4-1.3-0.8-0.6-1.7-1-1-0.4-2-0.6-0.9-0.2-1.9-0.1-1.1-0.1-2 0.1-1 0.2-1.9 0.6-1 0.4-1.8 1-0.8 0.6-1.4 1.3-1.4 1.7-2.1 3.7-0.7 2-0.7 4.2 0 2.1 0.7 4.1 0.7 2 2.1 3.7 0.7 0.8 1.5 1.4 0.9 0.6 1.8 1 1 0.4 2.1 0.6 1 0.1 2.1 0z"/><path class="c" d="m541.3 91.4q0-1.6 0.2-3.1 0.3-1.6 0.8-3.1 0.6-1.4 1.4-2.8 0.9-1.3 1.9-2.5 1.1-1.1 2.4-2 1.3-0.8 2.8-1.4 1.4-0.6 3-0.9 1.5-0.3 3-0.2 1.6-0.1 3.1 0.2 1.5 0.3 3 0.9 1.4 0.6 2.7 1.4 1.2 0.9 2.3 2c1.4 1.6 2.5 3.4 3.3 5.4 0.7 2 1.1 4 1.1 6.2 0 2.1-0.4 4.2-1.1 6.1-0.8 2-1.9 3.8-3.3 5.4q-1.1 1.1-2.3 2-1.3 0.8-2.7 1.4-1.5 0.6-3 0.9-1.5 0.3-3.1 0.2-1.5 0.1-3-0.2-1.6-0.3-3-0.9-1.5-0.6-2.8-1.4-1.3-0.9-2.4-2-1-1.2-1.9-2.5-0.8-1.4-1.4-2.9-0.5-1.5-0.8-3-0.2-1.6-0.2-3.2zm5.7 0q-0.1 1.1 0.1 2.2 0.2 1 0.5 2.1 0.4 1 1 1.9 0.5 1 1.2 1.8c0.9 0.9 2 1.7 3.3 2.2 1.2 0.6 2.5 0.8 3.8 0.8 1.3 0 2.7-0.2 3.9-0.8 1.2-0.5 2.3-1.3 3.2-2.2q0.7-0.8 1.3-1.8 0.5-0.9 0.9-1.9 0.4-1.1 0.5-2.1 0.2-1.1 0.1-2.2 0.1-1-0.1-2.1-0.1-1.1-0.5-2.1-0.4-1-0.9-1.9-0.6-0.9-1.3-1.7c-0.9-1-2-1.8-3.2-2.3-1.2-0.6-2.5-0.9-3.9-0.9-1.3 0-2.6 0.3-3.9 0.9-1.2 0.5-2.3 1.3-3.2 2.3q-0.7 0.8-1.2 1.7-0.6 0.9-1 1.9-0.3 1-0.5 2.1-0.1 1.1-0.1 2.1z"/><path class="c" d="m619.6 76.4l-9.8 30.1h-5.7l-7.6-23.1-7.4 23.1h-5.7l-10-30.1h6l6.7 22.7 7.4-22.7h5.8l7.1 22.7 6.7-22.7z"/><path class="c" d="m623.1 76.4h5.3v4.2q0.4-0.6 0.8-1.1 0.5-0.6 1-1 0.5-0.5 1-0.9 0.6-0.4 1.2-0.7 0.7-0.4 1.3-0.6 0.7-0.3 1.4-0.5 0.7-0.2 1.5-0.3 0.7-0.1 1.4-0.1 1.2-0.1 2.3 0.1 1.2 0.2 2.3 0.6 1.1 0.4 2.1 1 1 0.7 1.8 1.5 0.8 0.9 1.4 2 0.6 1 1 2.2 0.4 1.2 0.5 2.4 0.2 1.2 0.1 2.4v18.9h-5.2v-18.6c0.1-0.9 0-1.9-0.4-2.8-0.3-0.8-0.8-1.7-1.5-2.3-0.7-0.7-1.5-1.2-2.4-1.6-0.9-0.3-1.8-0.4-2.8-0.3q-0.8 0-1.6 0.1-0.8 0.2-1.5 0.6-0.7 0.3-1.3 0.8-0.7 0.5-1.2 1.2-0.5 0.6-1 1.4-0.4 0.8-0.7 1.6-0.3 0.9-0.5 1.8-0.1 0.8-0.1 1.7v16.7h-6.2z"/><path fill-rule="evenodd" class="c" d="m662.3 62.5v44h-5.7v-44z"/><path class="c" d="m667.1 91.4q-0.1-1.6 0.2-3.1 0.3-1.6 0.8-3.1 0.6-1.4 1.4-2.8 0.9-1.3 2-2.5 1-1.1 2.3-2 1.3-0.8 2.7-1.4 1.5-0.6 3-0.9 1.5-0.3 3.1-0.2 1.5-0.1 3.1 0.2 1.5 0.3 2.9 0.9 1.4 0.6 2.7 1.4 1.3 0.9 2.4 2 1.1 1.2 1.9 2.5 0.9 1.4 1.4 2.8 0.6 1.5 0.8 3.1 0.3 1.5 0.3 3.1 0 1.6-0.2 3.2-0.3 1.6-0.9 3-0.5 1.5-1.4 2.9-0.8 1.3-1.9 2.5-1.1 1.1-2.4 2-1.3 0.8-2.7 1.4-1.4 0.6-2.9 0.9-1.6 0.3-3.1 0.2-1.6 0.1-3.1-0.2-1.5-0.3-3-0.9-1.4-0.6-2.7-1.4-1.3-0.9-2.3-2-1.1-1.2-2-2.5-0.8-1.4-1.4-2.9-0.5-1.5-0.8-3-0.3-1.6-0.2-3.2zm5.6 0q0 1.1 0.2 2.2 0.1 1 0.5 2.1 0.3 1 0.9 1.9 0.6 1 1.3 1.8 0.7 0.7 1.5 1.3 0.8 0.5 1.7 0.9 0.9 0.4 1.9 0.6 1 0.2 2 0.1 1 0.1 1.9-0.1 1-0.2 1.9-0.6 0.9-0.4 1.8-0.9 0.8-0.6 1.5-1.3 0.7-0.9 1.2-1.8 0.6-0.9 0.9-1.9 0.4-1.1 0.6-2.1 0.1-1.1 0.1-2.2 0-1-0.1-2.1-0.2-1.1-0.6-2.1-0.3-1-0.9-1.9-0.5-0.9-1.2-1.7c-0.9-1-2-1.8-3.3-2.3-1.2-0.5-2.5-0.8-3.8-0.8-1.4 0-2.7 0.3-3.9 0.8-1.2 0.5-2.3 1.3-3.2 2.3q-0.7 0.8-1.3 1.7-0.6 0.9-0.9 1.9-0.4 1-0.6 2.1c-0.1 0.7-0.2 1.4-0.1 2.1z"/><path class="c" d="m714.7 75.4q1.4-0.1 2.7 0.1 1.3 0.2 2.6 0.6 1.3 0.4 2.4 1.1 1.2 0.7 2.2 1.5 1 0.9 1.7 2 0.7 1.1 1.1 2.2 0.5 1.2 0.7 2.5 0.2 1.3 0.1 2.5v18.6h-5.4v-4.2q-0.7 1.2-1.8 2.2-1 1-2.2 1.7-1.2 0.6-2.6 1-1.4 0.3-2.8 0.3-1.1 0-2.2-0.1-1.2-0.2-2.2-0.6-1.1-0.4-2.1-0.9-1-0.6-1.8-1.4-0.8-0.6-1.4-1.4-0.6-0.8-1.1-1.7-0.4-1-0.6-2-0.3-0.9-0.3-2 0-1 0.2-2.1 0.2-1 0.7-2 0.5-1 1.1-1.8 0.7-0.8 1.6-1.5 1-0.7 2.1-1.3 1.2-0.5 2.4-0.9 1.2-0.3 2.4-0.5 1.3-0.1 2.5-0.1 1.1 0 2.2 0.1 1 0.1 2.1 0.3 1 0.3 2 0.6 1 0.4 2 0.9v-1.3q0-0.7-0.1-1.4-0.2-0.7-0.5-1.4-0.3-0.6-0.7-1.2-0.5-0.6-1-1-0.6-0.5-1.2-0.9-0.7-0.4-1.4-0.7-0.7-0.2-1.4-0.4-0.7-0.1-1.5-0.1-1.1 0-2.2 0.3-1.1 0.2-2.1 0.8-1 0.5-1.8 1.2-0.8 0.8-1.4 1.8l-5-3.2q1-1.5 2.3-2.7 1.4-1.1 2.9-1.9 1.6-0.8 3.3-1.2 1.7-0.4 3.5-0.4zm-7.1 21.9q0 0.5 0.1 1.1 0.1 0.5 0.4 1 0.2 0.5 0.6 0.9 0.3 0.4 0.8 0.7 0.4 0.4 1 0.6 0.5 0.3 1 0.5 0.6 0.2 1.2 0.3 0.6 0.1 1.2 0.1 0.8 0 1.7-0.2 0.9-0.2 1.7-0.5 0.8-0.4 1.6-0.9 0.7-0.5 1.3-1.1 0.7-0.6 1.2-1.3 0.5-0.7 0.9-1.5 0.3-0.8 0.5-1.7 0.2-0.8 0.2-1.7-0.8-0.5-1.6-0.9-0.9-0.5-1.8-0.7-0.9-0.3-1.8-0.4-0.9-0.1-1.9-0.1-0.7 0-1.5 0.1-0.8 0.1-1.5 0.3-0.7 0.2-1.4 0.5-0.7 0.4-1.3 0.8-0.6 0.3-1.1 0.7-0.5 0.4-0.9 1-0.4 0.5-0.6 1.1-0.2 0.6-0.2 1.3z"/><path class="c" d="m746.9 107.5q-1.5 0-2.9-0.3-1.4-0.3-2.7-0.9-1.3-0.6-2.5-1.5-1.1-0.9-2-2-1.1-1.1-1.9-2.5-0.8-1.3-1.3-2.8-0.5-1.4-0.8-3-0.3-1.5-0.2-3.1-0.1-1.5 0.2-3.1 0.3-1.5 0.8-2.9 0.5-1.5 1.3-2.8 0.8-1.4 1.9-2.5 1.4-1.7 3.4-2.9 1.9-1.1 4.1-1.5 2.2-0.5 4.4-0.2 2.3 0.3 4.3 1.3 0.6 0.3 1.2 0.7 0.6 0.4 1.2 0.9 0.5 0.5 0.9 1 0.5 0.6 0.9 1.2v-4.2-14.2h5.6v44h-5.1v-4.1q-0.3 0.6-0.8 1.1-0.5 0.6-1 1-0.5 0.5-1.1 0.9-0.6 0.4-1.2 0.7-0.8 0.4-1.6 0.8-0.8 0.3-1.7 0.5-0.8 0.2-1.7 0.3-0.8 0.1-1.7 0.1zm0.9-5.2q1 0.1 2-0.1 1-0.2 1.9-0.5 0.9-0.4 1.7-1 0.8-0.6 1.5-1.3 0.7-0.9 1.2-1.8 0.6-0.9 0.9-1.9 0.4-1.1 0.6-2.1 0.1-1.1 0.1-2.2 0-1-0.2-2.1-0.1-1-0.5-2-0.3-1-0.9-2-0.5-0.9-1.2-1.7c-0.9-0.9-1.9-1.7-3.1-2.2-1.2-0.5-2.5-0.8-3.7-0.8-1.3 0-2.6 0.3-3.8 0.8-1.2 0.5-2.2 1.3-3.1 2.2q-1.3 1.7-2 3.7-0.7 2-0.7 4.2 0 2.1 0.7 4.1 0.7 2 2 3.7 0.6 0.7 1.4 1.3 0.7 0.5 1.6 0.9 0.8 0.4 1.8 0.6 0.9 0.2 1.8 0.2z"/><path class="c" d="m364.2 151.1h25.8l44.9 119.6h-24.9l-9.8-28.5h-46.5l-9.5 28.5h-24.9zm28.6 70.3l-10.7-29.9-4.1-14.5h-1.3l-4.3 14.5-10.7 29.9z"/><path class="c" d="m465.6 199.6h1.3q0.9-1.6 2.1-3 1.1-1.4 2.4-2.6 1.3-1.3 2.8-2.4 1.5-1 3.1-1.9 1.7-0.9 3.5-1.6 1.8-0.6 3.7-1.1 1.8-0.4 3.8-0.6 1.9-0.2 3.8-0.2 1.8-0.1 3.5 0.1 1.7 0.1 3.4 0.4 1.7 0.4 3.4 0.8 1.7 0.5 3.3 1.2 1.3 0.6 2.6 1.3 1.3 0.8 2.4 1.7 1.2 0.8 2.3 1.9 1 1 2 2.1 0.9 1.3 1.8 2.6 0.9 1.3 1.6 2.7 0.7 1.4 1.3 2.8 0.6 1.5 1 3 0.5 1.7 0.9 3.5 0.3 1.8 0.5 3.6 0.3 1.8 0.4 3.6 0.1 1.8 0.1 3.6v49.6h-21.6v-46.4q0.2-1.8 0-3.6-0.2-1.7-0.7-3.4-0.5-1.7-1.4-3.3-0.8-1.5-1.9-2.9-1.1-1.1-2.4-2-1.3-0.8-2.8-1.4-1.5-0.5-3.1-0.8-1.5-0.2-3.1-0.1-1 0-2.1 0.1-1 0.1-2 0.3-1 0.3-2 0.7-1 0.3-1.9 0.8-0.8 0.5-1.6 1.1-0.8 0.6-1.6 1.3-0.7 0.6-1.4 1.3-0.6 0.8-1.2 1.5-0.6 0.9-1.2 1.8-0.5 1-1 1.9-0.4 1-0.8 2-0.4 1-0.6 2.1-0.4 1.1-0.6 2.2-0.2 1.2-0.4 2.4-0.2 1.1-0.3 2.3 0 1.2 0 2.3v39.8h-22v-81.9h20.7z"/><path class="c" d="m601 260.8h-1.3q-0.9 1.5-1.9 2.8-1 1.3-2.2 2.5-1.2 1.2-2.5 2.2-1.3 1-2.7 1.8-1.8 1-3.7 1.7-2 0.7-3.9 1.2-2 0.4-4.1 0.6-2 0.2-4 0.2-2 0-3.9-0.3-1.9-0.2-3.8-0.6-1.9-0.4-3.7-1-1.8-0.6-3.6-1.4-1.8-0.8-3.4-1.8-1.7-1-3.3-2.2-1.6-1.2-3-2.5-1.5-1.3-2.8-2.8-1.4-1.5-2.7-3.1-1.2-1.7-2.3-3.4-1.1-1.7-2-3.6-0.9-1.8-1.6-3.7-0.9-2.1-1.6-4.3-0.7-2.1-1.1-4.3-0.5-2.2-0.7-4.5-0.2-2.2-0.3-4.5 0-2.2 0.2-4.5 0.2-2.2 0.6-4.4 0.4-2.2 1-4.4 0.6-2.1 1.4-4.2 0.7-1.9 1.6-3.7 1-1.9 2.1-3.6 1-1.7 2.3-3.4 1.2-1.6 2.6-3.1 1.3-1.4 2.8-2.8 1.4-1.3 3-2.5 1.6-1.1 3.3-2.1 1.7-1 3.5-1.9 1.7-0.8 3.5-1.4 1.9-0.6 3.8-1 1.8-0.4 3.8-0.6 1.9-0.2 3.8-0.2 2.1-0.1 4.1 0.1 2 0.2 4 0.7 2 0.4 3.9 1.2 1.9 0.7 3.7 1.6 1.5 0.8 2.8 1.9 1.3 1 2.5 2.1 1.2 1.2 2.2 2.5 1 1.4 1.8 2.8h1.8l-1.3-11.7v-36.1h21.9v119.6h-20.6zm-22-7.7q1.1 0 2.2-0.1 1-0.1 2.1-0.3 1.1-0.2 2.1-0.5 1-0.3 2-0.7 1-0.4 1.9-0.9 0.9-0.4 1.8-1 0.8-0.6 1.6-1.2 0.8-0.7 1.6-1.4 0.7-0.8 1.4-1.7 0.7-0.9 1.4-1.8 0.6-0.9 1.1-1.9 0.5-1 0.9-2 0.5-1.1 0.8-2.4 0.4-1.2 0.6-2.4 0.3-1.2 0.4-2.5 0.1-1.3 0.1-2.5 0-1.3-0.1-2.5-0.1-1.3-0.3-2.5-0.3-1.3-0.6-2.5-0.4-1.2-0.9-2.4-0.4-1-0.9-2-0.5-1-1.1-1.9-0.7-0.9-1.4-1.8-0.7-0.8-1.4-1.6-0.7-0.8-1.5-1.4-0.8-0.7-1.7-1.3-0.9-0.5-1.8-1-0.9-0.5-1.9-0.9-2-0.8-4.1-1.2-2.1-0.4-4.2-0.4-2.2 0-4.3 0.4-2 0.4-4 1.2-1 0.5-1.9 1-0.9 0.5-1.8 1.1-0.9 0.6-1.7 1.2-0.8 0.7-1.5 1.5-0.8 0.8-1.5 1.6-0.7 0.9-1.3 1.8-0.6 0.9-1.2 1.9-0.5 1-0.9 2-0.9 2.3-1.3 4.8-0.5 2.4-0.5 4.9 0 2.5 0.5 5 0.4 2.4 1.3 4.7 0.4 1 1 2 0.5 1 1.1 1.9 0.6 0.9 1.3 1.8 0.7 0.9 1.5 1.7 0.7 0.7 1.5 1.4 0.8 0.7 1.7 1.2 0.9 0.6 1.8 1.1 0.9 0.5 1.9 0.9 0.9 0.4 1.9 0.7 1 0.3 1.9 0.5 1 0.2 2 0.3 1.1 0.1 2.1 0.1z"/><path class="c" d="m638.6 188.8h20.5v11.4h1.4q0.4-0.8 0.8-1.5 0.4-0.8 0.9-1.5 0.5-0.7 1.1-1.3 0.6-0.7 1.2-1.3 0.6-0.6 1.3-1.2 0.6-0.6 1.3-1.1 0.7-0.6 1.5-1.1 0.7-0.5 1.5-0.9 0.7-0.5 1.6-0.9 0.8-0.4 1.6-0.8 0.8-0.4 1.7-0.7 0.9-0.3 1.7-0.6 0.9-0.3 1.8-0.5 0.9-0.2 1.8-0.3 0.9-0.2 1.8-0.2 0.9-0.1 1.8-0.1 0.9 0 1.9 0 0.9 0 1.8 0.2 1 0.1 1.9 0.3 0.9 0.2 1.8 0.4 0.7 0.2 1.4 0.4 0.7 0.3 1.3 0.6 0.7 0.3 1.3 0.6 0.6 0.4 1.2 0.8l-5.7 19.5q-0.6-0.2-1.1-0.5-0.6-0.2-1.1-0.4-0.6-0.2-1.2-0.3-0.5-0.2-1.1-0.4-0.7-0.1-1.5-0.2-0.7-0.1-1.5-0.2-0.7-0.1-1.4-0.1-0.8 0-1.5 0-1.1 0-2.1 0.1-1.1 0.1-2.1 0.3-1.1 0.2-2.1 0.6-1 0.3-1.9 0.8-0.9 0.4-1.8 0.9-0.9 0.5-1.7 1.1-0.8 0.7-1.5 1.4-0.7 0.7-1.3 1.5-0.7 0.8-1.3 1.7-0.6 0.9-1.1 1.9-0.5 0.9-0.9 1.9-0.4 1-0.7 2-0.4 1.1-0.6 2.3-0.3 1.1-0.5 2.3-0.2 1.2-0.2 2.3-0.1 1.2-0.1 2.4v40.3h-21.9z"/><path class="c" d="m739.1 186.2q2.2-0.1 4.4 0.1 2.2 0.2 4.4 0.6 2.2 0.4 4.4 1.1 2.1 0.6 4.2 1.4 1.9 0.8 3.8 1.8 1.8 1 3.5 2.2 1.8 1.1 3.3 2.5 1.6 1.3 3.1 2.8 1.5 1.5 2.8 3.1 1.3 1.6 2.5 3.3 1.2 1.8 2.2 3.6 1 1.8 1.8 3.8 0.8 2.1 1.4 4.2 0.6 2.2 1 4.4 0.4 2.2 0.6 4.4 0.2 2.3 0.2 4.5 0 2.3-0.2 4.5-0.2 2.2-0.6 4.4-0.4 2.3-1 4.4-0.6 2.2-1.4 4.3-0.8 1.9-1.8 3.8-1 1.8-2.2 3.6-1.2 1.7-2.5 3.3-1.3 1.6-2.8 3.1-1.5 1.5-3.1 2.8-1.6 1.4-3.3 2.5-1.7 1.2-3.5 2.2-1.9 1-3.8 1.8-4.2 1.6-8.6 2.4-4.4 0.8-8.8 0.8-4.5 0-8.9-0.8-4.4-0.8-8.6-2.4-3.9-1.5-7.4-3.8-3.4-2.3-6.4-5.2-2.9-3-5.2-6.5-2.3-3.5-3.8-7.4-0.8-2-1.4-4.2-0.7-2.2-1.1-4.4-0.4-2.2-0.6-4.4-0.1-2.3-0.1-4.5 0-2.3 0.1-4.5 0.2-2.2 0.6-4.4 0.5-2.3 1.1-4.4 0.6-2.2 1.4-4.3 0.8-1.9 1.8-3.7 1-1.9 2.2-3.6 1.2-1.7 2.5-3.3 1.3-1.6 2.8-3.1 1.5-1.5 3.1-2.9 1.6-1.3 3.3-2.5 1.7-1.1 3.6-2.1 1.8-1 3.8-1.8 2-0.9 4.1-1.5 2.1-0.7 4.3-1.1 2.2-0.5 4.3-0.7 2.2-0.2 4.5-0.2zm0 66.9q1 0.1 2 0 1.1-0.1 2.1-0.3 1-0.2 2-0.5 1-0.3 1.9-0.7 1-0.4 1.9-0.9 1-0.5 1.8-1.1 0.9-0.5 1.7-1.2 0.8-0.7 1.6-1.4 0.8-0.8 1.4-1.7 0.7-0.8 1.3-1.7 0.6-1 1.1-1.9 0.5-1 0.9-2 0.5-1.2 0.8-2.4 0.4-1.3 0.6-2.5 0.2-1.3 0.3-2.5 0.1-1.3 0.1-2.6 0-1.2-0.1-2.5-0.1-1.2-0.3-2.5-0.2-1.2-0.6-2.4-0.3-1.2-0.8-2.4-0.4-1-0.9-2-0.5-1-1.1-1.9-0.6-0.9-1.3-1.8-0.6-0.8-1.4-1.6-0.7-0.8-1.6-1.4-0.8-0.7-1.6-1.3-0.9-0.6-1.9-1-0.9-0.5-1.9-0.9-0.9-0.4-1.9-0.7-1-0.3-2-0.5-1-0.3-2.1-0.4-1-0.1-2-0.1-1.1 0-2.2 0.1-1 0.1-2.1 0.3-1 0.3-2 0.6-1 0.3-2 0.7-1 0.4-1.9 0.9-0.9 0.4-1.7 1-0.9 0.6-1.7 1.3-0.8 0.6-1.5 1.4-0.8 0.7-1.5 1.6-0.7 0.9-1.3 1.8-0.6 0.9-1.1 1.9-0.5 1-0.9 2-0.5 1.2-0.8 2.4-0.3 1.2-0.6 2.4-0.2 1.3-0.3 2.5-0.1 1.3-0.1 2.5 0 1.3 0.1 2.6 0.1 1.2 0.3 2.5 0.3 1.2 0.6 2.5 0.3 1.2 0.8 2.4 0.4 1 0.9 2 0.5 1 1.1 1.9 0.6 0.9 1.3 1.8 0.7 0.8 1.5 1.6 0.7 0.7 1.5 1.4 0.8 0.7 1.7 1.2 0.8 0.6 1.7 1.1 0.9 0.5 1.9 0.9 1 0.4 2 0.7 1 0.3 2 0.5 1.1 0.2 2.1 0.3 1.1 0.1 2.2 0z"/><path class="c" d="m805.7 177.8q-0.7 0-1.4 0-0.7-0.1-1.4-0.3-0.7-0.1-1.3-0.3-0.7-0.2-1.3-0.5-0.6-0.2-1.2-0.5-0.5-0.3-1.1-0.6-0.5-0.4-1-0.7-0.5-0.4-1-0.8-0.5-0.5-0.9-1-0.5-0.5-0.9-1.1-0.3-0.5-0.7-1.1-0.3-0.6-0.6-1.2-0.5-1.4-0.7-2.8-0.3-1.4-0.3-2.8 0-1.4 0.3-2.8 0.2-1.4 0.7-2.7 0.3-0.6 0.6-1.2 0.4-0.6 0.7-1.2 0.4-0.5 0.9-1.1 0.4-0.5 0.9-1 0.5-0.4 1-0.8 0.5-0.5 1.1-0.8 0.5-0.4 1.1-0.7 0.6-0.4 1.2-0.6 0.7-0.3 1.4-0.5 0.6-0.2 1.3-0.4 0.7-0.1 1.4-0.2 0.7 0 1.4 0 1.4-0.1 2.8 0.2 1.4 0.3 2.6 0.8 1.3 0.5 2.5 1.3 1.2 0.8 2.1 1.7c1.4 1.3 2.4 2.9 3.1 4.6 0.8 1.7 1.1 3.6 1.1 5.4 0 1.9-0.3 3.7-1.1 5.4-0.7 1.8-1.7 3.3-3.1 4.6q-1 1-2.2 1.7-1.2 0.7-2.5 1.2-1.3 0.5-2.7 0.7-1.4 0.2-2.8 0.1zm-10.8 92.9v-81.9h21.9v81.9z"/><path class="c" d="m895.6 260.8h-1.3q-0.8 1.5-1.8 2.8-1 1.3-2.2 2.5-1.2 1.2-2.5 2.2-1.3 1-2.8 1.8-1.8 1-3.7 1.7-1.9 0.7-3.9 1.2-2 0.4-4 0.6-2 0.2-4.1 0.2-1.9 0-3.8-0.3-1.9-0.2-3.8-0.6-1.9-0.4-3.7-1-1.8-0.6-3.6-1.4-1.8-0.8-3.5-1.8-1.7-1-3.2-2.2-1.6-1.2-3.1-2.5-1.4-1.3-2.7-2.8-1.4-1.5-2.7-3.1-1.2-1.7-2.3-3.4-1.1-1.7-2-3.6-0.9-1.8-1.7-3.7-0.8-2.1-1.4-4.3-0.6-2.1-1-4.3-0.4-2.3-0.6-4.5-0.2-2.2-0.1-4.5-0.1-2.2 0.1-4.5 0.2-2.2 0.6-4.4 0.3-2.3 0.9-4.4 0.6-2.2 1.4-4.3 0.8-1.9 1.7-3.7 0.9-1.9 2-3.6 1.1-1.7 2.3-3.3 1.3-1.7 2.7-3.2 1.3-1.4 2.7-2.7 1.5-1.4 3.1-2.5 1.5-1.2 3.2-2.2 1.7-1 3.5-1.8 1.8-0.9 3.6-1.5 1.8-0.6 3.7-1 1.9-0.4 3.8-0.6 1.9-0.2 3.9-0.2 2-0.1 4 0.1 2.1 0.2 4 0.7 2 0.4 3.9 1.2 1.9 0.7 3.7 1.6 1.5 0.8 2.8 1.9 1.3 1 2.5 2.1 1.2 1.2 2.2 2.5 1 1.4 1.8 2.8h1.3l-1.3-11.7v-36h22.5v119.6h-20.6zm-21.8-7.7q1 0 2.1-0.1 1-0.1 2.1-0.3 1-0.2 2-0.5 1.1-0.3 2-0.7 1-0.4 1.9-0.9 0.9-0.4 1.8-1 0.9-0.6 1.7-1.2 0.8-0.7 1.5-1.4 0.8-0.8 1.5-1.7 0.7-0.9 1.3-1.8 0.6-0.9 1.2-1.9 0.5-1 0.9-2 0.5-1.2 0.8-2.4 0.4-1.2 0.6-2.5 0.2-1.2 0.3-2.5 0.1-1.2 0.1-2.5 0-1.3-0.1-2.5-0.1-1.3-0.3-2.5-0.2-1.3-0.6-2.5-0.3-1.2-0.8-2.4-0.4-1-0.9-2-0.6-0.9-1.2-1.9-0.6-0.9-1.3-1.7-0.7-0.9-1.5-1.7-0.7-0.8-1.5-1.4-0.8-0.7-1.7-1.3-0.8-0.5-1.8-1-0.9-0.5-1.9-0.9-1.9-0.8-4-1.2-2.1-0.4-4.3-0.4-2.1 0-4.2 0.4-2.1 0.4-4.1 1.2-1 0.5-1.9 1-0.9 0.5-1.8 1.1-0.8 0.6-1.6 1.2-0.8 0.7-1.6 1.5-0.7 0.8-1.5 1.6-0.7 0.9-1.3 1.8-0.6 0.9-1.1 1.9-0.6 1-1 2-0.8 2.4-1.3 4.8-0.4 2.4-0.4 4.9 0 2.5 0.4 5 0.5 2.4 1.3 4.7 0.5 1.1 1 2 0.5 1 1.1 1.9 0.7 0.9 1.4 1.8 0.7 0.9 1.4 1.7 0.8 0.7 1.6 1.4 0.8 0.7 1.6 1.2 0.9 0.6 1.8 1.1 0.9 0.5 1.9 0.9 1 0.4 2 0.7 1.1 0.4 2.1 0.6 1.1 0.2 2.1 0.3 1.1 0.1 2.2 0.1z"/></svg>