<?xml version="1.0" standalone="no"?>
<!DOCTYPE svg PUBLIC "-//W3C//DTD SVG 20010904//EN"
 "http://www.w3.org/TR/2001/REC-SVG-20010904/DTD/svg10.dtd">
<svg version="1.0" xmlns="http://www.w3.org/2000/svg"
 width="600.000000pt" height="600.000000pt" viewBox="0 0 600.000000 600.000000"
 preserveAspectRatio="xMidYMid meet">
<metadata>
Created by potrace 1.16, written by Peter Selinger 2001-2019
</metadata>
<g transform="translate(0.000000,600.000000) scale(0.100000,-0.100000)"
fill="#000000" stroke="none">
<path d="M850 4671 c-52 -16 -108 -51 -140 -87 -57 -66 -73 -115 -78 -244 l-4
-116 53 -37 c49 -34 195 -134 425 -293 49 -34 125 -86 169 -117 44 -31 136
-95 205 -142 69 -48 208 -144 310 -215 102 -71 223 -155 270 -186 47 -32 117
-81 155 -109 39 -28 140 -98 225 -155 85 -58 157 -108 160 -112 12 -15 159
-78 219 -94 50 -12 98 -15 215 -12 142 4 156 7 234 37 46 19 104 48 130 65
240 164 369 253 497 342 83 57 218 150 300 207 83 57 177 123 210 146 144 102
378 264 674 466 64 44 156 109 205 144 l88 64 -4 116 c-3 88 -9 127 -25 162
-28 63 -77 116 -137 147 l-51 27 -2140 2 c-1177 1 -2151 -2 -2165 -6z"/>
<path d="M632 2552 l3 -997 33 -68 c23 -47 47 -77 78 -101 93 -72 -93 -66
2270 -64 l2130 3 59 30 c75 38 128 105 150 189 14 54 16 167 13 1034 l-3 972
-145 -100 c-247 -170 -323 -222 -385 -266 -33 -24 -123 -86 -200 -139 -77 -53
-207 -143 -290 -201 -662 -460 -774 -532 -875 -562 -210 -62 -321 -82 -465
-82 -121 0 -255 21 -393 61 -174 50 -235 85 -662 385 -91 63 -214 149 -275
190 -60 42 -186 129 -280 194 -93 66 -213 148 -265 184 -52 36 -126 88 -165
115 -113 80 -323 221 -330 221 -3 0 -4 -449 -3 -998z"/>
</g>
</svg>
